<svg xmlns="http://www.w3.org/2000/svg" viewBox="0 0 450.4 450.4"><path d="M143.7 350.3c-26 0-47 21.1-47 47 0 26 21.1 47 47 47 26 0 47-21.1 47-47s-21.1-47-47-47zm0 73.2c-14.4 0-26.1-11.7-26.1-26.1s11.7-26.1 26.1-26.1 26.1 11.7 26.1 26.1c0 14.4-11.7 26.1-26.1 26.1zm198.5-73.2c-26 0-47 21.1-47 47 0 26 21.1 47 47 47s47-21.1 47-47-21-47-47-47zm0 73.2c-14.4 0-26.1-11.7-26.1-26.1s11.7-26.1 26.1-26.1 26.1 11.7 26.1 26.1c0 14.4-11.7 26.1-26.1 26.1zM448.3 76c-2.2-2.4-5.2-3.9-8.4-4.2L99.8 67.2l-9.4-28.7C83.8 19.2 65.8 6.2 45.5 6h-35C4.7 6 0 10.7 0 16.5s4.7 10.4 10.4 10.4h35c11.4.3 21.4 7.5 25.1 18.3l66.4 200.1-5.2 12c-5.8 15-4.1 31.9 4.7 45.5 8.7 13.3 23.3 21.5 39.2 21.9h203.2c5.8 0 10.4-4.7 10.4-10.4s-4.7-10.4-10.4-10.4H175.5c-9-.2-17.2-4.9-21.9-12.5-4.7-7.5-5.7-16.8-2.6-25.1l4.2-9.4 220-23c24.2-2.7 44-20.2 49.6-43.9l25.1-105c1.1-3.1.5-6.5-1.6-9zm-43.9 109.2c-3.4 15.2-16.3 26.5-31.9 27.7l-217.3 22.5-48.6-147.3 320.3 4.7-22.5 92.4z" fill="#fff"/></svg>