<svg xmlns="http://www.w3.org/2000/svg" viewBox="0 0 512 512"><path d="M352 0H160C71.6 0 0 71.6 0 160v192c0 88.4 71.6 160 160 160h192c88.4 0 160-71.6 160-160V160C512 71.6 440.4 0 352 0z" fill="#688baf"/><path d="M252.533 349.399h19.695s6.006-.702 9.009-3.9c2.808-3.003 2.691-8.697 2.691-8.697s-.39-26.481 11.895-30.381c12.09-3.9 27.69 25.584 44.187 36.894 12.519 8.619 21.996 6.708 21.996 6.708l44.109-.585s23.088-1.404 12.09-19.617c-.897-1.482-6.396-13.416-32.799-37.908-27.612-25.584-23.907-21.489 9.399-65.91 20.319-26.988 28.431-43.485 25.935-50.583-2.418-6.708-17.316-4.914-17.316-4.914l-49.686.312s-3.705-.507-6.396 1.092c-2.691 1.599-4.407 5.304-4.407 5.304s-7.917 20.904-18.408 38.688c-22.113 37.596-30.888 39.507-34.593 37.206-8.385-5.499-6.318-21.801-6.318-33.501 0-36.387 5.499-51.519-10.803-55.497-5.382-1.287-9.399-2.184-23.205-2.301-17.706-.195-32.682.117-41.184 4.212-5.577 2.769-9.984 8.892-7.371 9.282 3.315.39 10.686 1.989 14.703 7.41 5.109 6.903 4.914 22.503 4.914 22.503s2.886 42.783-6.825 48.204c-6.708 3.705-15.912-3.783-35.607-37.908-10.101-17.394-17.706-36.699-17.706-36.699s-1.482-3.588-4.095-5.499c-3.198-2.301-7.605-3.081-7.605-3.081l-47.19.312s-7.098.195-9.711 3.315c-2.301 2.691-.195 8.385-.195 8.385s36.894 86.385 78.819 129.987c38.376 39.78 81.978 37.167 81.978 37.167z" fill="#fff"/></svg>